<?xml version="1.0" encoding="UTF-8"?>
<svg width="19px" height="20px" viewBox="0 0 19 20" version="1.1" xmlns="http://www.w3.org/2000/svg" xmlns:xlink="http://www.w3.org/1999/xlink">
    <!-- Generator: Sketch 51.3 (57544) - http://www.bohemiancoding.com/sketch -->
    <title>61020</title>
    <desc>Created with Sketch.</desc>
    <defs></defs>
    <g id="Page-1" stroke="none" stroke-width="1" fill="none" fill-rule="evenodd">
        <g id="select-s4-finish" transform="translate(-106.000000, -686.000000)" fill="#FFFFFF" fill-rule="nonzero">
            <g id="btn-share" transform="translate(40.000000, 677.000000)">
                <g id="61020" transform="translate(66.000000, 9.000000)">
                    <path d="M15.1636073,7.03517588 C14.3548816,7.03517588 13.6472466,7.33668342 13.141793,7.83919598 L5.96435222,3.71859296 C6.06544294,3.51758794 6.06544294,3.2160804 6.06544294,3.01507538 C6.06544294,1.30653266 4.75126363,0 3.03272147,0 C1.3141793,0 0,1.30653266 0,3.01507538 C0,4.72361809 1.3141793,6.03015075 3.03272147,6.03015075 C3.84144719,6.03015075 4.5490822,5.72864322 5.05453578,5.22613065 L12.2319766,9.34673367 C12.1308859,9.54773869 12.1308859,9.84924623 12.1308859,10.0502513 C12.1308859,10.2512563 12.1308859,10.5527638 12.2319766,10.7537688 L5.05453578,14.9748744 C4.5490822,14.4723618 3.84144719,14.1708543 3.03272147,14.1708543 C1.41527002,14.1708543 0.101090716,15.4773869 0.101090716,17.0854271 C0.101090716,18.6934673 1.41527002,20 3.03272147,20 C4.65017292,20 5.96435222,18.6934673 5.96435222,17.0854271 C5.96435222,16.8844221 5.96435222,16.6834171 5.86326151,16.3819095 L13.0407023,12.160804 C13.5461559,12.6633166 14.2537909,12.9648241 15.0625166,12.9648241 C16.7810588,12.9648241 18.0952381,11.6582915 18.0952381,9.94974874 C18.0952381,8.24120603 16.8821495,7.03517588 15.1636073,7.03517588 Z" id="Shape"></path>
                </g>
            </g>
        </g>
    </g>
</svg>