<?xml version="1.0" encoding="UTF-8"?>
<svg width="11px" height="22px" viewBox="0 0 11 22" version="1.1" xmlns="http://www.w3.org/2000/svg" xmlns:xlink="http://www.w3.org/1999/xlink">
    <!-- Generator: Sketch 51.3 (57544) - http://www.bohemiancoding.com/sketch -->
    <title>facebook-logo</title>
    <desc>Created with Sketch.</desc>
    <defs></defs>
    <g id="Page-1" stroke="none" stroke-width="1" fill="none" fill-rule="evenodd">
        <g id="select-s4-finish" transform="translate(-101.000000, -735.000000)" fill="#FFFFFF">
            <g id="btn-homepage" transform="translate(40.000000, 727.000000)">
                <path d="M71.5867128,8.83080772 L68.9479723,8.82683889 C65.9837879,8.82683889 64.0676384,10.7924664 64.0676384,13.8341752 L64.0676384,16.1432386 L61.4143455,16.1432386 C61.1860057,16.1432386 61,16.3281859 61,16.5575841 L61,19.903305 C61,20.1316448 61.1860057,20.3176505 61.4143455,20.3176505 L64.0676384,20.3176505 L64.0676384,28.7588156 C64.0676384,28.9871554 64.2536441,29.1731611 64.4830423,29.1731611 L67.94333,29.1731611 C68.1727281,29.1731611 68.3587338,28.9871554 68.3587338,28.7588156 L68.3587338,20.3176505 L71.4605042,20.3176505 C71.6899023,20.3176505 71.8751143,20.1316448 71.8751143,19.903305 L71.8769664,16.5575841 C71.8769664,16.4480445 71.8325155,16.3427382 71.7549911,16.2641555 C71.6774667,16.1866311 71.5721605,16.1432386 71.4615625,16.1432386 L68.3587338,16.1432386 L68.3587338,14.1858132 C68.3587338,13.2452013 68.5831048,12.7676192 69.8078847,12.7676192 L71.5856545,12.7665608 C71.8150527,12.7665608 72,12.5805552 72,12.3522153 L72,9.24647616 C72,9.01681339 71.8150527,8.83186607 71.5867128,8.83080772 Z" id="facebook-logo"></path>
            </g>
        </g>
    </g>
</svg>