<?xml version="1.0" encoding="UTF-8"?>
<svg width="40px" height="40px" viewBox="0 0 40 40" version="1.1" xmlns="http://www.w3.org/2000/svg" xmlns:xlink="http://www.w3.org/1999/xlink">
    <!-- Generator: Sketch 51.3 (57544) - http://www.bohemiancoding.com/sketch -->
    <title>Group 2</title>
    <desc>Created with Sketch.</desc>
    <defs>
        <path d="M12.2160406,14.1805779 C12.6736275,13.537997 13.1376503,12.8257516 13.618023,12.0375103 C14.6829892,13.4781362 15.5972325,14.321916 16.4910096,14.7696576 C17.4092289,15.2296436 18.1594581,15.3174393 20.3690129,15.3174393 L20.3690129,12.9082781 C20.3690129,12.7687018 20.4153109,12.6332814 20.5002919,12.5242906 C20.7069832,12.2592026 21.0839851,12.2162233 21.3423492,12.4282937 L25.775137,16.0668147 C25.8096833,16.095171 25.8410619,16.1273663 25.8686989,16.1628116 C26.0753902,16.4278997 26.0335011,16.814713 25.775137,17.0267835 L21.3423492,20.6653045 C21.236123,20.7524971 21.1041375,20.8 20.9681015,20.8 C20.637234,20.8 20.3690129,20.5247984 20.3690129,20.1853201 L20.3690129,17.7761589 C17.798033,17.7761589 16.7968341,17.6589935 15.4396208,16.9790915 C14.344731,16.4306016 13.3120377,15.5435574 12.2160406,14.1805779 Z M8.55130398,8.75748855 C6.47189459,5.95216978 4.84697658,5.48256072 1.19817723,5.48256072 C0.536442218,5.48256072 5.32097579e-16,4.93215758 0,4.2532009 C-5.32097579e-16,3.57424422 0.536442218,3.02384108 1.19817723,3.02384108 C5.28585054,3.02384108 7.53354159,3.68540557 9.9430619,6.62537953 C9.49050805,7.2653423 9.02894865,7.97392993 8.55130398,8.75748855 Z M16.4910096,6.03034241 C15.2004547,6.67685158 13.867229,8.14907849 12.0991916,11.0515594 C8.66967346,16.6815937 6.45606004,17.7761589 1.19817723,17.7761589 C0.536442218,17.7761589 -5.32097579e-16,17.2257558 0,16.5467991 C5.32097579e-16,15.8678424 0.536442218,15.3174393 1.19817723,15.3174393 C5.67548441,15.3174393 7.10546596,14.6103565 10.0670871,9.7484406 C12.0513496,6.49099576 13.6636652,4.71058133 15.4396208,3.8209085 C16.7968341,3.1410065 17.798033,3.02384108 20.3690129,3.02384108 L20.3690129,0.61467991 C20.3690129,0.27520157 20.637234,0 20.9681015,0 C21.1041375,0 21.236123,0.0475029257 21.3423492,0.134695541 L25.775137,3.77321653 C26.0335011,3.98528697 26.0753902,4.37210035 25.8686989,4.63718839 C25.8410619,4.67263373 25.8096833,4.704829 25.775137,4.73318527 L21.3423492,8.37170625 C21.0839851,8.58377669 20.7069832,8.54079743 20.5002919,8.27570938 C20.4153109,8.16671861 20.3690129,8.03129817 20.3690129,7.89172189 L20.3690129,5.48256072 C18.1594581,5.48256072 17.4092289,5.57035638 16.4910096,6.03034241 Z" id="path-1"></path>
    </defs>
    <g id="Page-1" stroke="none" stroke-width="1" fill="none" fill-rule="evenodd">
        <g id="select-s2a-info" transform="translate(-298.000000, -428.000000)">
            <g id="sound1" transform="translate(0.000000, 281.000000)">
                <g id="Group-2" transform="translate(298.000000, 147.000000)">
                    <rect id="BG" fill="#388646" x="0" y="0" width="40" height="40" rx="5"></rect>
                    <g id="Icons-/-Shuffle" transform="translate(7.000000, 10.000000)">
                        <mask id="mask-2" fill="white">
                            <use xlink:href="#path-1"></use>
                        </mask>
                        <use id="Icon" fill="#FFFFFF" xlink:href="#path-1"></use>
                    </g>
                </g>
            </g>
        </g>
    </g>
</svg>